<svg width="9" height="11" viewBox="0 0 9 11" fill="none" xmlns="http://www.w3.org/2000/svg">
<path fill-rule="evenodd" clip-rule="evenodd" d="M9 1.78748C9 0.800283 8.18203 -3.57545e-08 7.17302 -7.98599e-08C6.164 -1.23965e-07 5.34604 0.800283 5.34604 1.78748C5.34604 2.24857 5.52447 2.66888 5.81747 2.98591L4.50152 4.8611L3.18278 2.98564C3.47563 2.66863 3.65396 2.24843 3.65396 1.78748C3.65396 0.800283 2.836 -2.69437e-07 1.82698 -3.13543e-07C0.817968 -3.57648e-07 9.18693e-07 0.800283 8.75541e-07 1.78748C8.32389e-07 2.77468 0.817968 3.57496 1.82698 3.57496C2.06036 3.57496 2.28352 3.53215 2.48871 3.45411L7.66892 10.8213C7.80089 11.009 8.06339 11.0564 8.25523 10.9273C8.44707 10.7982 8.4956 10.5414 8.36362 10.3537L5.01345 5.58915L6.51165 3.45425C6.71674 3.5322 6.93977 3.57496 7.17302 3.57496C8.18203 3.57496 9 2.77468 9 1.78748ZM7.17302 0.824992C7.71633 0.824992 8.15678 1.25591 8.15678 1.78748C8.15678 2.31905 7.71633 2.74997 7.17302 2.74997C6.6297 2.74997 6.18926 2.31905 6.18926 1.78748C6.18926 1.25591 6.6297 0.824992 7.17302 0.824992ZM2.81074 1.78748C2.81074 1.25591 2.3703 0.824992 1.82698 0.824992C1.28367 0.824991 0.843223 1.25591 0.843223 1.78748C0.843223 2.31905 1.28367 2.74997 1.82698 2.74997C2.3703 2.74997 2.81074 2.31905 2.81074 1.78748Z" fill="#B7B7B9"/>
<path d="M3.7484 7.38377C3.88038 7.19609 3.83186 6.93926 3.64003 6.81013C3.44819 6.681 3.18569 6.72848 3.05371 6.91616L0.636472 10.3536C0.504491 10.5413 0.553011 10.7981 0.744844 10.9273C0.936676 11.0564 1.19918 11.0089 1.33116 10.8212L3.7484 7.38377Z" fill="#B7B7B9"/>
</svg>
